<svg style="width:24px;height:24px" viewBox="0 0 24 24"><path d="M 4 2 A 2 2 0 0 0 2 4 L 2 22 L 6 18 L 20 18 A 2 2 0 0 0 22 16 L 22 4 A 2 2 0 0 0 20 2 L 4 2 z M 4 4 L 20 4 L 20 16 L 6 16 L 4 18 L 4 4 z M 9.5722656 4.9960938 C 9.4775913 4.9960938 9.3914253 5.0502574 9.3515625 5.125 L 8.2460938 7.0976562 L 8.2011719 7.2382812 L 8.2460938 7.3769531 L 9.3515625 9.3515625 C 9.3914253 9.4263055 9.4775916 9.4804688 9.5722656 9.4804688 L 11.814453 9.4804688 C 11.909127 9.4804687 11.993343 9.4263055 12.033203 9.3515625 L 13.138672 7.3769531 L 13.183594 7.2382812 L 13.138672 7.0976562 L 12.033203 5.125 C 11.99334 5.0502571 11.909123 4.9960938 11.814453 4.9960938 L 9.5722656 4.9960938 z M 14.181641 7.7363281 C 14.086967 7.7363281 14.000808 7.7904914 13.960938 7.8652344 L 12.855469 9.8398438 L 12.810547 9.9785156 L 12.855469 10.119141 L 13.960938 12.091797 C 14.000801 12.166541 14.086971 12.220703 14.181641 12.220703 L 16.423828 12.220703 C 16.518502 12.220703 16.602708 12.166537 16.642578 12.091797 L 17.748047 10.119141 L 17.792969 9.9785156 L 17.748047 9.8398438 L 16.642578 7.8652344 C 16.602715 7.7904914 16.518498 7.7363281 16.423828 7.7363281 L 14.181641 7.7363281 z M 9.5722656 10.476562 C 9.4775913 10.476562 9.3914255 10.532682 9.3515625 10.607422 L 8.2460938 12.580078 L 8.2011719 12.71875 L 8.2460938 12.859375 L 9.3515625 14.832031 C 9.3914253 14.906775 9.4775916 14.960938 9.5722656 14.960938 L 11.814453 14.960938 C 11.909127 14.960937 11.993343 14.906771 12.033203 14.832031 L 13.138672 12.859375 L 13.183594 12.71875 L 13.138672 12.580078 L 12.033203 10.607422 C 11.99334 10.532679 11.909123 10.476562 11.814453 10.476562 L 9.5722656 10.476562 z "/></svg>
